<?xml version="1.0" encoding="UTF-8"?>
<svg version="1.1" xmlns="http://www.w3.org/2000/svg" width="500" height="500">
<path d="M0 0 C165 0 330 0 500 0 C500 165 500 330 500 500 C335 500 170 500 0 500 C0 335 0 170 0 0 Z " fill="#FEFEFE" transform="translate(0,0)"/>
<path d="M0 0 C1.71771103 -0.00430527 1.71771103 -0.00430527 3.47012329 -0.00869751 C5.8856862 -0.01073346 8.30126577 -0.00523654 10.71679688 0.00732422 C14.39491065 0.02335403 18.07192065 0.0074738 21.75 -0.01171875 C24.10416907 -0.00973566 26.45833746 -0.00589063 28.8125 0 C29.90339935 -0.00607269 30.99429871 -0.01214539 32.11825562 -0.0184021 C39.750206 0.05113883 46.2159267 1.05242235 52.7890625 5.0859375 C58.00858698 10.45044877 61.12886282 16.09348208 61.23193359 23.62915039 C61.24799652 24.69778824 61.26405945 25.76642609 61.28060913 26.8674469 C61.32522962 31.76961565 61.36615185 36.67164989 61.38916016 41.57397461 C61.40568202 44.15284269 61.43292153 46.7316657 61.47119141 49.31030273 C61.52622077 53.03914016 61.54787861 56.76690379 61.5625 60.49609375 C61.58516937 61.63812759 61.60783875 62.78016144 61.63119507 63.95680237 C61.60951999 72.25180837 59.99605183 79.09403705 54.2539978 85.34022522 C49.29686455 90.01469925 44.03351373 91.63599085 37.23657227 91.68896484 C36.11843643 91.70172455 35.0003006 91.71448425 33.84828186 91.72763062 C32.05746437 91.73096909 32.05746437 91.73096909 30.23046875 91.734375 C28.99038559 91.7410318 27.75030243 91.7476886 26.47264099 91.75454712 C23.85441569 91.76465622 21.23616472 91.76936468 18.61791992 91.76904297 C15.94186466 91.76888011 13.26649164 91.78281659 10.59057617 91.81005859 C6.72032838 91.84673438 2.85087307 91.85651691 -1.01953125 91.859375 C-2.21138535 91.87374603 -3.40323944 91.88811707 -4.63121033 91.90292358 C-12.59399093 91.85922647 -17.09238963 90.87942593 -23.10546875 85.46875 C-23.65589844 84.82679688 -24.20632812 84.18484375 -24.7734375 83.5234375 C-25.61841797 82.56824219 -25.61841797 82.56824219 -26.48046875 81.59375 C-29.41372672 77.24416958 -30.21057098 72.79814617 -30.28320312 67.62768555 C-30.30241821 66.5160051 -30.3216333 65.40432465 -30.34143066 64.25895691 C-30.34993042 63.07135269 -30.35843018 61.88374847 -30.3671875 60.66015625 C-30.37858765 59.42481644 -30.38998779 58.18947662 -30.4017334 56.91670227 C-30.42059518 54.3068889 -30.43368617 51.69702831 -30.44140625 49.0871582 C-30.45451954 45.11018986 -30.52290076 41.1346886 -30.5859375 37.15820312 C-30.59899895 34.61719972 -30.60949935 32.0761816 -30.6171875 29.53515625 C-30.6418811 28.35362473 -30.66657471 27.1720932 -30.6920166 25.95475769 C-30.650179 18.14000697 -29.15042354 13.30607617 -23.9609375 7.3984375 C-16.79861063 0.41976004 -9.53076818 -0.05285862 0 0 Z " fill="#F24646" transform="translate(107.9609375,215.6015625)"/>
<path d="M0 0 C0.640625 1.9765625 0.640625 1.9765625 1.25 4.625 C3.13360003 12.03252552 6.06482507 18.96127954 9 26 C11.76244441 22.67848946 13.33451818 19.2228681 15 15.25 C15.26055176 14.63108887 15.52110352 14.01217773 15.78955078 13.37451172 C17.63828851 8.95442146 19.37734154 4.5073846 21 0 C24.63 0 28.26 0 32 0 C32.029729 1.36765503 32.029729 1.36765503 32.06005859 2.76293945 C32.13890694 6.19806994 32.22561763 9.63282623 32.31738281 13.06762695 C32.35528686 14.54443929 32.39020113 16.02133192 32.421875 17.49829102 C32.61026923 26.17914374 33.16247012 34.47714799 35 43 C31.04 43 27.08 43 23 43 C22.67 35.08 22.34 27.16 22 19 C19.03 25.27 16.06 31.54 13 38 C10.36 38 7.72 38 5 38 C4.01761592 35.58459694 3.03899782 33.16778178 2.0625 30.75 C1.78470703 30.06808594 1.50691406 29.38617188 1.22070312 28.68359375 C-0.07850315 25.45905769 -1.1547734 22.38090641 -2 19 C-2.33 27.25 -2.66 35.5 -3 44 C-6.63 43.67 -10.26 43.34 -14 43 C-13.7834375 41.82566406 -13.566875 40.65132813 -13.34375 39.44140625 C-11.00788836 26.17526568 -9.85130765 13.37734267 -12 0 C-10.37585622 -0.19477739 -8.75063577 -0.38059458 -7.125 -0.5625 C-6.22007812 -0.66691406 -5.31515625 -0.77132812 -4.3828125 -0.87890625 C-2 -1 -2 -1 0 0 Z " fill="#F04C4C" transform="translate(316,239)"/>
<path d="M0 0 C2.97 0.33 5.94 0.66 9 1 C9.36738281 2.00740234 9.36738281 2.00740234 9.7421875 3.03515625 C13.03218211 11.82738324 16.75078315 20.39441125 20.60888672 28.95141602 C22.68220636 33.6236912 24.54628541 37.84335922 25 43 C22.03 43.99 19.06 44.98 16 46 C13.525 39.565 13.525 39.565 11 33 C7.04 33 3.08 33 -1 33 C-2.65 36.96 -4.3 40.92 -6 45 C-12.93359375 42.8515625 -12.93359375 42.8515625 -15 42 C-15.33 41.34 -15.66 40.68 -16 40 C-15.36669922 38.25097656 -15.36669922 38.25097656 -14.3046875 36.140625 C-13.92062744 35.36106445 -13.53656738 34.58150391 -13.14086914 33.77832031 C-12.72313232 32.94397461 -12.30539551 32.10962891 -11.875 31.25 C-6.91987956 21.09205109 -3.05061187 10.8891796 0 0 Z " fill="#F04B4B" transform="translate(203,238)"/>
<path d="M0 0 C2.87020785 1.18769577 3.45997381 2.70520436 4.8840332 5.43505859 C5.37194336 6.36576172 5.85985352 7.29646484 6.36254883 8.25537109 C6.85819336 9.23505859 7.35383789 10.21474609 7.86450195 11.22412109 C8.37948242 12.19607422 8.89446289 13.16802734 9.42504883 14.16943359 C12.20497289 19.55809496 12.20497289 19.55809496 13.05200195 21.84912109 C12.05200195 24.84912109 12.05200195 24.84912109 8.7355957 26.75146484 C7.3251581 27.44003542 5.90950902 28.1180079 4.48950195 28.78662109 C3.79791992 29.12113281 3.10633789 29.45564453 2.39379883 29.80029297 C0.99324559 30.47772739 -0.40977935 31.15007465 -1.81518555 31.81738281 C-4.64761999 33.18756001 -7.4322369 34.64664801 -10.21386719 36.11694336 C-11.94799805 36.84912109 -11.94799805 36.84912109 -14.82299805 36.84912109 C-16.94799805 35.84912109 -16.94799805 35.84912109 -18.32299805 34.28662109 C-19.26388343 30.61716811 -18.56894265 27.57478869 -17.94799805 23.84912109 C-19.06174805 23.43662109 -20.17549805 23.02412109 -21.32299805 22.59912109 C-23.75347474 21.55116252 -24.79999779 21.0402881 -26.44799805 18.91162109 C-27.06215114 16.37823957 -26.92780199 15.2669272 -25.94799805 12.84912109 C-23.84667969 11.30932617 -23.84667969 11.30932617 -21.1081543 9.86865234 C-20.12782227 9.34464844 -19.14749023 8.82064453 -18.13745117 8.28076172 C-17.10555664 7.74644531 -16.07366211 7.21212891 -15.01049805 6.66162109 C-13.46845703 5.84274414 -13.46845703 5.84274414 -11.89526367 5.00732422 C-2.13341119 -0.16523977 -2.13341119 -0.16523977 0 0 Z " fill="#FEF4F4" transform="translate(123.947998046875,250.15087890625)"/>
<path d="M0 0 C0.87229248 0.27336182 1.74458496 0.54672363 2.64331055 0.82836914 C3.52801025 1.10285889 4.41270996 1.37734863 5.32421875 1.66015625 C5.99026123 1.87164307 6.65630371 2.08312988 7.3425293 2.30102539 C7.35711182 2.95176025 7.37169434 3.60249512 7.38671875 4.27294922 C7.46117479 7.22040845 7.55784195 10.16673181 7.6550293 13.11352539 C7.67758789 14.13768555 7.70014648 15.1618457 7.72338867 16.21704102 C7.7765625 17.69140625 7.7765625 17.69140625 7.83081055 19.19555664 C7.85699463 20.10152588 7.88317871 21.00749512 7.91015625 21.94091797 C8.41769394 24.71131142 9.28608322 25.47166733 11.3425293 27.30102539 C11.3425293 27.96102539 11.3425293 28.62102539 11.3425293 29.30102539 C8.20153609 31.18275936 6.37263696 31.45317504 2.7800293 30.86352539 C-0.35922276 30.3606098 -1.54558795 30.26373114 -4.6574707 31.30102539 C-8.7719275 31.68918169 -11.15658087 31.54183781 -14.9074707 29.73852539 C-18.7239645 26.35572407 -20.23708575 23.18663072 -20.97387695 18.12915039 C-21.35069893 11.07893281 -19.06342029 6.05068206 -14.4699707 0.80102539 C-9.67684151 -1.75531018 -5.18044536 -1.36257373 0 0 Z " fill="#F04B4B" transform="translate(253.657470703125,251.698974609375)"/>
<path d="M0 0 C5.13308791 2.61320839 8.1797908 5.53937241 10 11 C10.56554312 17.56030019 9.38904265 22.32075105 6 28 C2.65406431 31.2445437 -0.71961622 32.16178361 -5.3125 32.3125 C-9.96148802 32.23702942 -12.48571315 31.18737644 -16 28 C-19.46232233 23.35319898 -20.62691981 19.9299278 -20.3125 14.1328125 C-19.48572626 8.49008174 -16.42771949 4.62983773 -12.09375 1.140625 C-8.16565941 -0.99930495 -4.30851654 -0.83895207 0 0 Z " fill="#F04C4C" transform="translate(287,251)"/>
<path d="M0 0 C4.35972324 2.21949547 6.02406226 4.03208301 9 8 C9 11.3 9 14.6 9 18 C2.07 18 -4.86 18 -12 18 C-10.66436384 22.94463635 -10.66436384 22.94463635 -8 24 C-6.45976004 24.06950541 -4.91665012 24.08452357 -3.375 24.0625 C-2.55773437 24.05347656 -1.74046875 24.04445313 -0.8984375 24.03515625 C-0.27195312 24.02355469 0.35453125 24.01195312 1 24 C1.33 23.01 1.66 22.02 2 21 C3.98 21.99 5.96 22.98 8 24 C7.9375 25.75 7.9375 25.75 7 28 C2.51747906 31.3618907 -1.10025209 32.72223152 -6.72265625 32.453125 C-11.78348061 31.44616852 -15.66544798 28.81732775 -18.6953125 24.69140625 C-21.00045147 19.93619443 -20.73061394 15.15526662 -20 10 C-18.36241585 6.1520142 -15.90146272 3.79843841 -12.8125 1.0625 C-8.52205204 -0.5583359 -4.52418056 -0.65977633 0 0 Z " fill="#F04C4C" transform="translate(409,251)"/>
<path d="M0 0 C2.97 0 5.94 0 9 0 C9.33 14.85 9.66 29.7 10 45 C6.37 45 2.74 45 -1 45 C-0.9285376 44.17935059 -0.8570752 43.35870117 -0.78344727 42.51318359 C-0.0367976 33.19212659 0.12079112 23.96917582 0.0625 14.625 C0.05746589 13.1953141 0.05290643 11.76562645 0.04882812 10.3359375 C0.03799465 6.89058755 0.02083984 3.44530573 0 0 Z " fill="#F05050" transform="translate(374,237)"/>
<path d="M0 0 C0.33 0 0.66 0 1 0 C1.00586624 0.59611084 1.01173248 1.19222168 1.01777649 1.80639648 C1.08193762 8.03643858 1.16641505 14.26597494 1.26245117 20.49560547 C1.29561153 22.81747755 1.32367087 25.13942851 1.34643555 27.46142578 C1.38014472 30.80795768 1.43247009 34.15377244 1.48828125 37.5 C1.49467117 38.5305249 1.5010611 39.5610498 1.50764465 40.62280273 C1.64809512 47.57937068 2.19796815 53.87651134 7.04296875 59.27734375 C7.75066406 59.82519531 8.45835938 60.37304688 9.1875 60.9375 C10.46596742 61.94875621 11.7391988 62.96680187 13 64 C13 64.33 13 64.66 13 65 C6.33318011 64.46665441 2.40568597 62.54315374 -2.1875 57.6875 C-8.45330354 48.39682578 -7.46110487 40.08567773 -5.46875 29.58984375 C-5.31337769 28.73693253 -5.15800537 27.8840213 -4.9979248 27.00526428 C-4.50602972 24.31458399 -4.00321971 21.62608278 -3.5 18.9375 C-3.16203288 17.09974302 -2.82478653 15.26185334 -2.48828125 13.42382812 C-1.66717181 8.94764268 -0.83627565 4.4733757 0 0 Z " fill="#F2B9B9" transform="translate(77,240)"/>
<path d="M0 0 C0.33 0 0.66 0 1 0 C0.42084076 7.23949048 -2.09226822 11.42307915 -7.375 16.25 C-12.8899681 20.7228616 -18.04514161 21.35419296 -25 21 C-28.27262032 20.60898472 -31.50622844 20.04929316 -34.75 19.46875 C-35.64871826 19.31337769 -36.54743652 19.15800537 -37.47338867 18.9979248 C-40.31672731 18.50488964 -43.15833879 18.00260347 -46 17.5 C-47.93869503 17.16214554 -49.87749625 16.82489984 -51.81640625 16.48828125 C-56.54552785 15.66588816 -61.2731241 14.83519988 -66 14 C-66 13.67 -66 13.34 -66 13 C-65.3766124 12.99413376 -64.75322479 12.98826752 -64.11094666 12.98222351 C-57.60532655 12.91814277 -51.10019441 12.83368514 -44.5949707 12.73754883 C-42.16925502 12.70435534 -39.74346314 12.67630616 -37.31762695 12.65356445 C-33.82470316 12.61991669 -30.33247415 12.56759369 -26.83984375 12.51171875 C-25.22069313 12.50213387 -25.22069313 12.50213387 -23.5688324 12.49235535 C-14.49069895 12.31627617 -8.62546886 10.31730752 -2 4 C-0.62745412 1.85019503 -0.62745412 1.85019503 0 0 Z " fill="#F2B9B9" transform="translate(166,294)"/>
<path d="M0 0 C6.5871399 0.49403549 11.20292596 3.262186 15.84375 7.8046875 C21.18993095 14.48741369 20.63946268 21.8849141 20 30 C19.29836748 35.86392878 18.14534413 41.64736262 17 47.4375 C16.70968228 48.95874536 16.42061353 50.48022963 16.1328125 52.00195312 C15.43618114 55.67082218 14.72295112 59.33621447 14 63 C13.67 63 13.34 63 13 63 C12.99635437 62.42894531 12.99270874 61.85789062 12.98895264 61.26953125 C12.94697912 55.29890984 12.87753048 49.32904655 12.79248047 43.35888672 C12.76434228 41.13402914 12.74309235 38.90907293 12.72900391 36.68408203 C12.70747568 33.47637697 12.66077322 30.26984897 12.609375 27.0625 C12.60814636 26.07572266 12.60691772 25.08894531 12.60565186 24.07226562 C12.4427185 16.30205892 10.70081232 10.9643062 5.4375 5.1875 C4.633125 4.465625 3.82875 3.74375 3 3 C2 2 1 1 0 0 Z " fill="#F2BBBB" transform="translate(156,218)"/>
<path d="M0 0 C1.4776287 0.29026589 2.95549305 0.57933481 4.43359375 0.8671875 C8.00020714 1.56440714 11.56339821 2.27756036 15.125 3 C15.125 3.33 15.125 3.66 15.125 4 C13.81418457 4.00410889 12.50336914 4.00821777 11.15283203 4.01245117 C6.25091183 4.03435935 1.34978103 4.0887697 -3.55175781 4.15258789 C-5.66593818 4.17566635 -7.78023186 4.19013957 -9.89453125 4.19555664 C-12.94862663 4.20492061 -16.00096452 4.24607368 -19.0546875 4.29296875 C-19.98739471 4.2890361 -20.92010193 4.28510345 -21.881073 4.28105164 C-29.67377252 4.45109874 -36.50205865 6.701885 -42.1640625 12.23828125 C-42.60492188 12.92277344 -43.04578125 13.60726562 -43.5 14.3125 C-43.96664062 15.00988281 -44.43328125 15.70726562 -44.9140625 16.42578125 C-45.38972656 17.20501953 -45.38972656 17.20501953 -45.875 18 C-47.22995847 13.93512459 -46.14673401 12.19900694 -44.38671875 8.42578125 C-34.11750981 -8.05271681 -16.06531773 -3.26640756 0 0 Z " fill="#F2BABA" transform="translate(125.875,212)"/>
<path d="M0 0 C2.24243223 2.86103423 3 4.34076304 3 8 C2.34 8 1.68 8 1 8 C1.33 9.98 1.66 11.96 2 14 C2.94875 14.0825 3.8975 14.165 4.875 14.25 C8 15 8 15 9.375 16.75 C10.07302263 19.26288146 10.14423717 21.40373089 10 24 C6.04 25.98 6.04 25.98 2 28 C-0.04075997 24.42766684 -2.05402535 20.84056921 -4.0625 17.25 C-4.64322266 16.23421875 -5.22394531 15.2184375 -5.82226562 14.171875 C-6.36689453 13.1921875 -6.91152344 12.2125 -7.47265625 11.203125 C-7.98062744 10.30239258 -8.48859863 9.40166016 -9.01196289 8.47363281 C-10 6 -10 6 -9.76733398 3.75292969 C-9 2 -9 2 -7.25 0.75 C-4.54910837 -0.15029721 -2.82059764 -0.50626111 0 0 Z " fill="#FEF4F4" transform="translate(137,245)"/>
<path d="M0 0 C2.64 0 5.28 0 8 0 C8.33 9.9 8.66 19.8 9 30 C5.7 30 2.4 30 -1 30 C-0.83628906 28.74316406 -0.67257812 27.48632812 -0.50390625 26.19140625 C0.09918182 20.76361366 0.11185202 15.39279662 0.0625 9.9375 C0.05798828 8.97650391 0.05347656 8.01550781 0.04882812 7.02539062 C0.03717706 4.68352578 0.02082025 2.34179819 0 0 Z " fill="#F04B4B" transform="translate(358,252)"/>
<path d="M0 0 C3.17101018 0.81307953 4.45315287 2.05269816 6.4375 4.625 C6.4375 5.615 6.4375 6.605 6.4375 7.625 C2.71040256 9.58729016 -1.01952888 11.54413212 -4.75 13.5 C-6.33264648 14.33337891 -6.33264648 14.33337891 -7.94726562 15.18359375 C-8.96884766 15.71855469 -9.99042969 16.25351563 -11.04296875 16.8046875 C-12.44905396 17.54307861 -12.44905396 17.54307861 -13.88354492 18.29638672 C-16.40427426 19.5465288 -18.93544405 20.6208438 -21.5625 21.625 C-17.72628101 17.02153721 -13.73468482 12.74195496 -9.4453125 8.55859375 C-7.75628151 6.82400798 -6.32261071 5.05969985 -4.875 3.125 C-2.5625 0.625 -2.5625 0.625 0 0 Z " fill="#FDEFEF" transform="translate(126.5625,235.375)"/>
<path d="M0 0 C3 0.4375 3 0.4375 4.875 1.4375 C6.67089984 4.63021083 6.42025419 7.9045156 6 11.4375 C4.99124788 14.24759519 4.66604583 15.10447708 2 16.4375 C-1 16.6875 -1 16.6875 -4 16.4375 C-6.69469307 12.39546039 -6.53918165 9.17887511 -6 4.4375 C-4.46998206 0.95245914 -3.77624335 0.55070215 0 0 Z " fill="#FEFAFA" transform="translate(282,258.5625)"/>
<path d="M0 0 C2.375 0.9375 2.375 0.9375 4.375 3.9375 C5.03962987 8.56672433 5.20821164 12.61053331 2.6875 16.625 C0.375 17.9375 0.375 17.9375 -2.25 17.875 C-4.625 16.9375 -4.625 16.9375 -6.625 13.9375 C-7.28962987 9.30827567 -7.45821164 5.26446669 -4.9375 1.25 C-2.625 -0.0625 -2.625 -0.0625 0 0 Z " fill="#FEF3F3" transform="translate(248.625,258.0625)"/>
<path d="M0 0 C0.33 0.99 0.66 1.98 1 3 C-0.98 3.99 -0.98 3.99 -3 5 C-2.41584531 8.61393308 -1.44519602 11.42476184 0.28515625 14.64453125 C0.73310547 15.48564453 1.18105469 16.32675781 1.64257812 17.19335938 C2.11115234 18.05767578 2.57972656 18.92199219 3.0625 19.8125 C3.53494141 20.69615234 4.00738281 21.57980469 4.49414062 22.49023438 C5.65703284 24.66331578 6.82578375 26.83302284 8 29 C7.34 29.66 6.68 30.32 6 31 C2.04 23.41 -1.92 15.82 -6 8 C-10.64793016 8.92958603 -14.17787052 10.41215202 -18.3125 12.5625 C-18.95767578 12.89185547 -19.60285156 13.22121094 -20.26757812 13.56054688 C-21.84785228 14.36824255 -23.42432105 15.18337613 -25 16 C-23.68888432 12.06665295 -22.26643931 11.77439985 -18.65234375 9.86328125 C-17.57275391 9.28642578 -16.49316406 8.70957031 -15.38085938 8.11523438 C-14.24455078 7.52033203 -13.10824219 6.92542969 -11.9375 6.3125 C-10.79732422 5.70599609 -9.65714844 5.09949219 -8.48242188 4.47460938 C-5.65935511 2.97448603 -2.8318692 1.48342027 0 0 Z " fill="#F35B5B" transform="translate(131,243)"/>
<path d="M0 0 C-0.33 1.32 -0.66 2.64 -1 4 C-0.01 4 0.98 4 2 4 C0.78836152 7.63491543 -0.10771062 7.95246215 -3.375 9.75 C-4.16648437 10.19859375 -4.95796875 10.6471875 -5.7734375 11.109375 C-8 12 -8 12 -11 11 C-10.34 10.01 -9.68 9.02 -9 8 C-10.32 8 -11.64 8 -13 8 C-11.78604047 4.35812142 -10.90993923 4.08254007 -7.625 2.3125 C-6.83351563 1.87550781 -6.04203125 1.43851562 -5.2265625 0.98828125 C-3 0 -3 0 0 0 Z " fill="#FDE6E6" transform="translate(125,264)"/>
<path d="M0 0 C6.46153846 0.46153846 6.46153846 0.46153846 9 3 C9 4.32 9 5.64 9 7 C4.71 7 0.42 7 -4 7 C-2 2 -2 2 0 0 Z " fill="#FEFCFC" transform="translate(401,257)"/>
<path d="M0 0 C0.66 0 1.32 0 2 0 C5 6.5 5 6.5 5 11 C2.36 11 -0.28 11 -3 11 C-2.44894091 7.0507432 -1.61064629 3.65079826 0 0 Z " fill="#FDEFEF" transform="translate(207,251)"/>
<path d="M0 0 C2.64 0 5.28 0 8 0 C8 2.31 8 4.62 8 7 C5.36 7 2.72 7 0 7 C0 4.69 0 2.38 0 0 Z " fill="#F04A4A" transform="translate(358,239)"/>
<path d="M0 0 C-1 3 -1 3 -3.21484375 4.38671875 C-4.56255859 5.03060547 -4.56255859 5.03060547 -5.9375 5.6875 C-6.83339844 6.12449219 -7.72929688 6.56148438 -8.65234375 7.01171875 C-11 8 -11 8 -13 8 C-11.78604047 4.35812142 -10.90993923 4.08254007 -7.625 2.3125 C-6.83351563 1.87550781 -6.04203125 1.43851562 -5.2265625 0.98828125 C-3 0 -3 0 0 0 Z " fill="#F57979" transform="translate(125,264)"/>
<path d="M0 0 C-1.59622656 1.03320481 -3.20229106 2.05122429 -4.8125 3.0625 C-6.15248047 3.91521484 -6.15248047 3.91521484 -7.51953125 4.78515625 C-10 6 -10 6 -13 5 C-11.40377344 3.96679519 -9.79770894 2.94877571 -8.1875 1.9375 C-7.29417969 1.36902344 -6.40085937 0.80054688 -5.48046875 0.21484375 C-3 -1 -3 -1 0 0 Z " fill="#F35F5F" transform="translate(127,270)"/>
<path d="M0 0 C1.32 2.97 2.64 5.94 4 9 C3.01 9 2.02 9 1 9 C0.54625 8.05125 0.0925 7.1025 -0.375 6.125 C-1.80238254 2.99686321 -1.80238254 2.99686321 -4 1 C-2 0 -2 0 0 0 Z " fill="#F46767" transform="translate(127,248)"/>
</svg>
