<svg xmlns="http://www.w3.org/2000/svg" viewBox="0 0 24 24" id="workshop">
  <path fill="#549bff" d="m20.75,5v8.75h-1.5V5c0-.689-.561-1.25-1.25-1.25H6c-.689,0-1.25.561-1.25,1.25v8.75h-1.5V5c0-1.517,1.233-2.75,2.75-2.75h12c1.517,0,2.75,1.233,2.75,2.75Zm-5.75.25h-6c-.414,0-.75.336-.75.75s.336.75.75.75h6c.414,0,.75-.336.75-.75s-.336-.75-.75-.75Z"></path>
  <path fill="#112d55" d="m21.53,18.488c-.317-1.058-.956-1.968-1.808-2.629.629-.593,1.028-1.428,1.028-2.359,0-1.792-1.458-3.25-3.25-3.25-.727,0-1.391.248-1.933.653-.473-1.53-1.884-2.653-3.567-2.653s-3.094,1.122-3.567,2.653c-.542-.404-1.206-.653-1.933-.653-1.792,0-3.25,1.458-3.25,3.25,0,.931.399,1.766,1.028,2.359-.852.661-1.491,1.571-1.808,2.629-.16.538-.06,1.104.276,1.555.334.449.847.707,1.405.707h1.362c.06.124.131.244.221.354.338.411.837.646,1.367.646h9.797c.53,0,1.029-.235,1.367-.646.09-.109.162-.229.221-.354h1.362c.559,0,1.071-.258,1.405-.707.336-.45.437-1.017.276-1.555Zm-4.03-6.738c.965,0,1.75.785,1.75,1.75s-.785,1.75-1.75,1.75-1.75-.785-1.75-1.75.785-1.75,1.75-1.75Zm-5.5-2c1.24,0,2.25,1.01,2.25,2.25s-1.01,2.25-2.25,2.25-2.25-1.01-2.25-2.25,1.01-2.25,2.25-2.25Zm-5.5,2c.965,0,1.75.785,1.75,1.75s-.785,1.75-1.75,1.75-1.75-.785-1.75-1.75.785-1.75,1.75-1.75Zm-2.552,7.396c-.029-.039-.073-.121-.041-.229.295-.986.988-1.784,1.9-2.246.224.049.454.078.693.078.101,0,.197-.021.296-.03-.599.726-1.036,1.585-1.291,2.53h-1.354c-.109,0-.174-.064-.203-.104Zm13.159,1.004c-.051.062-.129.1-.209.1H7.102c-.08,0-.158-.037-.209-.1-.041-.05-.057-.104-.046-.158.478-2.458,2.646-4.242,5.153-4.242s4.676,1.784,5.153,4.242c.011.055-.005.108-.046.158Zm2.944-1.004c-.029.039-.094.104-.203.104h-1.354c-.254-.945-.692-1.804-1.291-2.53.099.009.194.03.296.03.238,0,.469-.029.693-.078.912.462,1.605,1.26,1.9,2.246.032.107-.012.189-.041.229Z"></path>
</svg>
